# xmcd
#
# Track frame offsets:
# 150
# 16627
# 29437
# 39225
# 55605
# 65700
# 82912
# 95775
# 113437
# 125137
# 150300
# 160985
# 168825
#
# Disc length: 2412 seconds
#
#
# Revision: 0
# Processed by: cddbd v1.5.1PL2 Copyright (c) Steve Scherf et al.
# Submitted via: FreeRIP 2.93 
#
DISCID=93096a0d
DTITLE=Ed McCurdy - Cowboy Songs
DYEAR=1996
DGENRE=Country
TTITLE0=when the work's all done this fall
TTITLE1=the cowboy
TTITLE2=jack o'diamonds
TTITLE3=utah carroll
TTITLE4=punchin' the dough
TTITLE5=red river valley
TTITLE6=my gal on the rio grande
TTITLE7=along side of the santa fe trail
TTITLE8=the days of '49
TTITLE9=strawberry roan
TTITLE10=poor lonesome cowboy
TTITLE11=when the curtains of night
TTITLE12=the texas song
EXTD=
EXTT0=
EXTT1=
EXTT2=
EXTT3=
EXTT4=
EXTT5=
EXTT6=
EXTT7=
EXTT8=
EXTT9=
EXTT10=
EXTT11=
EXTT12=
PLAYORDER=
